<svg id="Layer_1" data-name="Layer 1" xmlns="http://www.w3.org/2000/svg" viewBox="0 0 795.38 129.73"><defs><style>.cls-1,.cls-3{fill:#231f20;}.cls-2{fill:none;stroke:#231f20;stroke-miterlimit:10;stroke-width:2px;}.cls-3{font-size:48px;font-family:AmazonEmberCdRC-Regular, Amazon Ember Cd RC;}</style></defs><path class="cls-1" d="M143.77,69.09a55.63,55.63,0,0,0-5.05-11.76c-.47-.83-.95-1.64-1.46-2.53.32-.09.59-.17.85-.23,1.23-.28,2.47-.54,3.7-.85.72-.18.83-.72.29-1.23a1.38,1.38,0,0,0-1.32-.37c-1.32.3-2.64.58-4,.87-.68.16-.68.17-1.08-.42a72.59,72.59,0,0,0-13.92-15,87.43,87.43,0,0,0-11.76-8.13l.68,2a81.88,81.88,0,0,1,10.38,7.42,70.18,70.18,0,0,1,12.65,13.73c.19.27.37.55.58.86a6.9,6.9,0,0,1-2,.54c-1.89.45-3.8.83-5.69,1.27-.8.18-.68.26-1.15-.44a56.8,56.8,0,0,0-9.23-10.47c-.56-.51-1.14-1-1.72-1.48l1,3a54.36,54.36,0,0,1,8.22,9.49.57.57,0,0,1,.17.53c-.87.19-1.72.37-2.57.57-.34.09-.75.13-.83.59a1.14,1.14,0,0,0,.71,1.05,1.77,1.77,0,0,0,1.24,0c.74-.16,1.49-.32,2.22-.51a.52.52,0,0,1,.69.27,44.87,44.87,0,0,1,3.95,8.84,34.28,34.28,0,0,1,1.67,11.8,31.24,31.24,0,0,1-10.49,22.38,37.85,37.85,0,0,1-9.88,6.55c-1.14.53-2.31,1-3.48,1.51-.42.17-.64.11-.86-.31-.52-1-1.11-2-1.67-3a1.44,1.44,0,0,0-1.21-.81,1,1,0,0,0-1,1.48c.46.91,1,1.78,1.45,2.67a1.92,1.92,0,0,1,.39,1A42.47,42.47,0,0,1,100,111c-11.82,2.48-23.39,1.34-34.74-2.52A67.14,67.14,0,0,1,43,96,53.54,53.54,0,0,1,31.92,83a27,27,0,0,1-2.05-3.84c1.08-.36,2.16-.51,3.21-.78.43-.12.88-.18,1.32-.3a1.07,1.07,0,0,0,.86-.93,1.13,1.13,0,0,0-.75-1A1.85,1.85,0,0,0,33.28,76c-1.26.29-2.53.56-3.79.83-.63.14-.64.14-.87-.42C23.18,63.07,25.71,48.77,37,38.84a41.3,41.3,0,0,1,14.72-8.19,55.27,55.27,0,0,1,7.61-1.88c.75-.13.76-.13,1.15.57a3.07,3.07,0,0,1,.17.31l2.7-3.13-1.43.13c-.32,0-.58.05-.77-.31-1.29-2.4-2.61-4.79-3.91-7.19a.62.62,0,0,1,0-.21c1.22-.16,2.45-.24,3.67-.3a83.16,83.16,0,0,1,9.21.05l1.23-1.43a84.38,84.38,0,0,0-13.86,0c-1.31.11-1.3.1-1.94-1.11-.53-1-1.08-2-1.61-3a1.58,1.58,0,0,0-1.58-.92c-.71,0-.93.44-.59,1.07.49.92,1,1.82,1.49,2.74A6.59,6.59,0,0,1,54,17.56l-.79.15A71.48,71.48,0,0,0,39.51,21a56.91,56.91,0,0,0-15.35,8A44.34,44.34,0,0,0,9.76,46.52C5.13,56.88,5.06,67.45,8.44,78.15c.33,1,.71,2.07,1.07,3.12l-.46.14L4,82.53c-1,.24-2.09.46-3.12.74A1.12,1.12,0,0,0,0,84.36a1.25,1.25,0,0,0,1,1,2,2,0,0,0,.92.07c.33-.06.66-.14,1-.21l6.83-1.56c.78-.17.79-.17,1.11.55a59.4,59.4,0,0,0,3.9,7.19,72.43,72.43,0,0,0,16.66,18.21,90.18,90.18,0,0,0,34.93,16.86c15.38,3.74,30.69,3.78,45.83-1.33.4-.14.59-.08.79.3.7,1.35,1.43,2.68,2.16,4,.39.72.77,1.44,1.2,2.13a1.34,1.34,0,0,0,1.84.48c.52-.33.6-.92.22-1.65-.28-.52-.57-1-.86-1.55q-1.12-2-2.24-4.07c-.36-.66-.35-.67.38-1,1.27-.54,2.54-1.09,3.77-1.7a51.53,51.53,0,0,0,12.44-8.47,41.86,41.86,0,0,0,13.81-28.52A45.11,45.11,0,0,0,143.77,69.09ZM12.29,80.16C6.19,64.55,8.34,46.93,22,33.88a49.25,49.25,0,0,1,11.15-8,64,64,0,0,1,21.23-6.66c.41-.05.67,0,.89.38,1.24,2.33,2.51,4.65,3.77,7a2.55,2.55,0,0,1,.16.38A63.77,63.77,0,0,0,51.9,28.6a49.29,49.29,0,0,0-9.16,3.65,38.68,38.68,0,0,0-9.59,7c-8.35,8.39-11.49,18.44-9.52,30.09a39.32,39.32,0,0,0,2.09,7.38,2.89,2.89,0,0,1,.28.93,27.68,27.68,0,0,1-2.83.67C19.79,79,16.41,79.76,13,80.53,12.62,80.63,12.45,80.56,12.29,80.16Zm99,42.64c-.38.13-.8.28-1.22.41a75.93,75.93,0,0,1-35.77,2.32,88.2,88.2,0,0,1-40.77-17.66,69.8,69.8,0,0,1-15.75-17,63.34,63.34,0,0,1-4-7.3,5.94,5.94,0,0,1-.28-.7l5.85-1.33,7-1.59c.74-.17.74-.18,1.08.48a56.41,56.41,0,0,0,18.61,21,72.45,72.45,0,0,0,42.9,13.29,58.91,58.91,0,0,0,15.39-2.24l.41-.13c1-.34.83-.41,1.34.5,1.71,3.11,3.39,6.23,5.08,9.35A.76.76,0,0,1,111.28,122.8Zm17.74-10a51,51,0,0,1-14.76,8.85c-.61.24-.62.25-.92-.3l-4.83-8.8c-.21-.4-.43-.79-.69-1.28.87-.34,1.66-.64,2.44-1a39.31,39.31,0,0,0,16-11.93,32.62,32.62,0,0,0,6.63-25.48,40.54,40.54,0,0,0-4.64-13.68,14,14,0,0,1-1.13-2.15l3-.68,4.86-1.11a.69.69,0,0,1,.89.35c4.45,7.34,7.38,15.18,7.75,23.82C144.12,92.92,139.09,104,129,112.82Z" transform="translate(0 -2.57)"/><path class="cls-1" d="M123.89,72.66a5.67,5.67,0,0,1-3.57,7.19L65.88,98.19a5.68,5.68,0,0,1-7.18-3.56L47.31,60.85a11.55,11.55,0,0,1,3.86-19.71,12.19,12.19,0,0,1,2.68-.56l31-36.95A2.92,2.92,0,0,1,89,3.26l5.21,4.37a2.9,2.9,0,0,1,1,2,3,3,0,0,1-.67,2.15l-25,29.75,33.94-11.43a5.66,5.66,0,0,1,7.19,3.56Zm-4.32,5a3.32,3.32,0,0,0,2.08-4.22L110.86,41.33,65.52,56.61a11.52,11.52,0,0,1-15.07,6.17L60.92,93.86A3.33,3.33,0,0,0,65.13,96ZM110.1,39.11l-1.59-4.71a3.31,3.31,0,0,0-4.2-2.09h0l.42-1.58-3.22,1.2-.4,1.46-6.21,2.09.42-1.58-3.22,1.2-.4,1.46-6.19,2.09.42-1.58-3.24,1.2-.39,1.47-6.2,2.08.43-1.59-3.23,1.21-.39,1.45L66.7,45l-1.54,1.84a10.71,10.71,0,0,1,.68,1.59,11.58,11.58,0,0,1,.47,5.45l4-1.32-.24.9,3.22-1.2.21-.78,6.21-2.09-.24.9,3.23-1.2.21-.78,6.21-2.09-.24.9,3.22-1.2.22-.78L98.47,43l-.24.91,3.23-1.21.21-.77ZM92.79,10.26a.63.63,0,0,0,.14-.43.6.6,0,0,0-.22-.39l-5.2-4.37a.57.57,0,0,0-.82.07L85.23,6.86,85,6.1,82.84,8.79l.2.69-4.26,5.06-.25-.91L76.36,16.3l.24.85-4.25,5.06-.3-1.07-2.16,2.67.28,1-4.26,5.07-.34-1.23-2.18,2.67.33,1.17L56.83,40.7a11.49,11.49,0,0,1,7,4.07l2.51-3,.42,1.5,2.17-2.68-.4-1.43,4.24-5.06.47,1.65,2.18-2.67L75,31.5l4.24-5.06.51,1.82,2.17-2.68-.48-1.74,4.24-5.07.55,2,2.16-2.67-.52-1.9Zm-35,50.58A9.22,9.22,0,1,0,46.14,55,9.24,9.24,0,0,0,57.81,60.84Z" transform="translate(0 -2.57)"/><polygon class="cls-1" points="104.68 28.17 104.26 29.75 101.06 30.83 101.45 29.37 104.68 28.17"/><polygon class="cls-1" points="101.06 30.83 104.26 29.75 101.67 39.38 98.47 40.46 101.06 30.83"/><polygon class="cls-1" points="101.67 39.38 101.45 40.16 98.23 41.37 98.47 40.46 101.67 39.38"/><polygon class="cls-1" points="95.27 31.34 94.85 32.92 91.65 34 92.05 32.54 95.27 31.34"/><polygon class="cls-1" points="91.65 34 94.85 32.92 92.28 42.55 89.08 43.63 91.65 34"/><polygon class="cls-1" points="92.28 42.55 92.06 43.33 88.84 44.53 89.08 43.63 92.28 42.55"/><polygon class="cls-1" points="87.82 13.6 88.34 15.5 86.18 18.17 85.63 16.2 87.82 13.6"/><polygon class="cls-1" points="85.23 4.29 87.82 13.6 85.63 16.2 83.04 6.91 85.23 4.29"/><polygon class="cls-1" points="85.88 34.51 85.46 36.09 82.25 37.18 82.64 35.71 85.88 34.51"/><polygon class="cls-1" points="85.46 36.09 82.87 45.72 79.67 46.8 82.25 37.18 85.46 36.09"/><polygon class="cls-1" points="85.23 4.29 83.04 6.91 82.84 6.22 85.02 3.53 85.23 4.29"/><polygon class="cls-1" points="82.87 45.72 82.66 46.5 79.43 47.7 79.67 46.8 82.87 45.72"/><polygon class="cls-1" points="81.39 21.27 81.87 23.01 79.7 25.69 79.19 23.87 81.39 21.27"/><polygon class="cls-1" points="78.78 11.97 81.39 21.27 79.19 23.87 76.61 14.58 78.78 11.97"/><polygon class="cls-1" points="78.53 11.05 78.78 11.97 76.61 14.58 76.36 13.73 78.53 11.05"/><polygon class="cls-1" points="76.48 37.67 76.05 39.26 72.86 40.33 73.25 38.88 76.48 37.67"/><polygon class="cls-1" points="76.05 39.26 73.47 48.89 70.27 49.97 72.86 40.33 76.05 39.26"/><polygon class="cls-1" points="74.95 28.93 75.39 30.53 73.21 33.2 72.74 31.55 74.95 28.93"/><polygon class="cls-1" points="74.95 28.93 72.74 31.55 70.17 22.24 72.35 19.64 74.95 28.93"/><polygon class="cls-1" points="73.47 48.89 73.25 49.67 70.03 50.87 70.27 49.97 73.47 48.89"/><polygon class="cls-1" points="72.05 18.57 72.35 19.64 70.17 22.24 69.89 21.24 72.05 18.57"/><polygon class="cls-1" points="68.5 36.61 68.9 38.04 66.73 40.71 66.31 39.22 68.5 36.61"/><polygon class="cls-1" points="65.91 27.31 68.5 36.61 66.31 39.22 63.72 29.92 65.91 27.31"/><polygon class="cls-1" points="65.57 26.07 65.91 27.31 63.72 29.92 63.39 28.75 65.57 26.07"/><path class="cls-2" d="M95.32,64l-7.63-1.53-7.62-1.54a2.54,2.54,0,0,0-2.91,3.31l2.47,7.37L82.12,79a2.53,2.53,0,0,0,4.31.88L91.58,74l5.15-5.83A2.55,2.55,0,0,0,95.32,64Z" transform="translate(0 -2.57)"/><text class="cls-3" transform="translate(161.69 78.46)">MEDIA INSIGHTS ON AWS</text></svg>